<svg width="190" height="37" viewBox="0 0 190 37" fill="none" xmlns="http://www.w3.org/2000/svg">
<path d="M8.324 6.698C9.388 6.698 10.368 6.838 11.264 7.118C12.16 7.37 12.846 7.664 13.322 8C13.602 8.196 13.854 8.294 14.078 8.294C14.33 8.294 14.54 8.168 14.708 7.916C14.904 7.636 15.03 7.244 15.086 6.74H15.968C15.856 8.168 15.8 10.632 15.8 14.132H14.918C14.666 12.284 14.106 10.744 13.238 9.512C12.398 8.252 11.166 7.622 9.542 7.622C8.702 7.622 8.002 7.86 7.442 8.336C6.91 8.812 6.644 9.47 6.644 10.31C6.644 11.262 6.966 12.088 7.61 12.788C8.254 13.46 9.262 14.286 10.634 15.266L11.852 16.148C13.56 17.436 14.82 18.584 15.632 19.592C16.444 20.6 16.85 21.86 16.85 23.372C16.85 24.604 16.486 25.696 15.758 26.648C15.058 27.6 14.106 28.328 12.902 28.832C11.698 29.336 10.368 29.588 8.912 29.588C7.372 29.588 6.056 29.294 4.964 28.706C4.068 28.258 3.424 27.964 3.032 27.824C2.752 27.74 2.5 27.838 2.276 28.118C2.08 28.37 1.926 28.762 1.814 29.294H0.932C1.044 27.698 1.1 24.898 1.1 20.894H1.982C2.542 26.046 4.432 28.622 7.652 28.622C8.464 28.622 9.15 28.384 9.71 27.908C10.298 27.404 10.592 26.648 10.592 25.64C10.592 24.856 10.41 24.156 10.046 23.54C9.71 22.924 9.276 22.378 8.744 21.902C8.212 21.426 7.414 20.768 6.35 19.928C5.09 18.92 4.124 18.108 3.452 17.492C2.808 16.876 2.248 16.148 1.772 15.308C1.324 14.468 1.1 13.53 1.1 12.494C1.1 10.702 1.8 9.288 3.2 8.252C4.6 7.216 6.308 6.698 8.324 6.698ZM24.9524 29.294C23.1604 29.294 21.8164 28.832 20.9204 27.908C20.0524 26.984 19.6184 25.766 19.6184 24.254C19.6184 22.994 19.9404 21.958 20.5844 21.146C21.2564 20.306 22.0544 19.662 22.9784 19.214C23.9304 18.766 25.1344 18.29 26.5904 17.786C28.1304 17.254 29.2504 16.778 29.9504 16.358C30.6784 15.91 31.0424 15.308 31.0424 14.552V11.276C31.0424 10.1 30.7624 9.19 30.2024 8.546C29.6704 7.874 28.8304 7.538 27.6824 7.538C26.3384 7.538 25.3164 7.874 24.6164 8.546C25.4004 8.826 26.0024 9.246 26.4224 9.806C26.8704 10.366 27.0944 11.024 27.0944 11.78C27.0944 12.732 26.7724 13.488 26.1284 14.048C25.4844 14.608 24.7004 14.888 23.7764 14.888C22.7964 14.888 22.0404 14.58 21.5084 13.964C20.9764 13.348 20.7104 12.578 20.7104 11.654C20.7104 10.87 20.8924 10.212 21.2564 9.68C21.6484 9.12 22.2364 8.602 23.0204 8.126C23.7764 7.678 24.7004 7.328 25.7924 7.076C26.9124 6.824 28.1304 6.698 29.4464 6.698C30.8184 6.698 32.0084 6.838 33.0164 7.118C34.0244 7.398 34.8644 7.874 35.5364 8.546C36.1524 9.162 36.5584 9.918 36.7544 10.814C36.9784 11.71 37.0904 12.928 37.0904 14.468V25.892C37.0904 26.564 37.1464 27.04 37.2584 27.32C37.3984 27.6 37.6504 27.74 38.0144 27.74C38.4344 27.74 38.9384 27.502 39.5264 27.026L39.9464 27.74C38.6864 28.776 37.1464 29.294 35.3264 29.294C33.7864 29.294 32.7084 28.986 32.0924 28.37C31.4764 27.754 31.1544 26.928 31.1264 25.892C29.7264 28.16 27.6684 29.294 24.9524 29.294ZM28.1864 26.606C29.2784 26.606 30.2304 26.032 31.0424 24.884V16.274C30.7064 16.834 29.9924 17.45 28.9004 18.122C27.8084 18.822 26.9824 19.522 26.4224 20.222C25.8624 20.922 25.5824 21.93 25.5824 23.246C25.5824 24.394 25.8204 25.248 26.2964 25.808C26.7724 26.34 27.4024 26.606 28.1864 26.606ZM56.7707 6.698C58.8987 6.698 60.4387 7.244 61.3907 8.336C61.8667 8.868 62.2027 9.554 62.3987 10.394C62.5947 11.234 62.6927 12.368 62.6927 13.796V25.094C62.6927 26.242 62.8887 27.04 63.2807 27.488C63.7007 27.908 64.4007 28.118 65.3807 28.118V29C62.5807 28.888 60.7327 28.832 59.8367 28.832C58.9967 28.832 57.1767 28.888 54.3767 29V28.118C55.2167 28.118 55.8047 27.908 56.1407 27.488C56.4767 27.04 56.6447 26.242 56.6447 25.094V12.032C56.6447 10.884 56.4487 10.016 56.0567 9.428C55.6927 8.84 55.0207 8.546 54.0407 8.546C52.8927 8.546 51.9127 9.022 51.1007 9.974C50.2887 10.898 49.8827 12.046 49.8827 13.418V25.094C49.8827 26.242 50.0507 27.04 50.3867 27.488C50.7227 27.908 51.3107 28.118 52.1507 28.118V29C49.5747 28.888 47.8387 28.832 46.9427 28.832C46.1027 28.832 44.1707 28.888 41.1467 29V28.118C42.1547 28.118 42.8547 27.908 43.2467 27.488C43.6387 27.04 43.8347 26.242 43.8347 25.094V11.864C43.8347 10.576 43.6387 9.638 43.2467 9.05C42.8547 8.462 42.1547 8.168 41.1467 8.168V7.286C42.0427 7.37 42.9107 7.412 43.7507 7.412C46.2427 7.412 48.2867 7.216 49.8827 6.824V10.604C51.1427 8 53.4387 6.698 56.7707 6.698ZM77.8655 6.698C78.9015 6.698 79.8815 6.81 80.8055 7.034C81.7295 7.258 82.4995 7.566 83.1155 7.958C83.8435 8.406 84.4035 8.98 84.7955 9.68C85.2155 10.352 85.4255 11.094 85.4255 11.906C85.4255 12.886 85.1175 13.698 84.5015 14.342C83.8855 14.958 83.0875 15.266 82.1075 15.266C81.1275 15.266 80.3435 14.986 79.7555 14.426C79.1675 13.866 78.8735 13.11 78.8735 12.158C78.8735 11.318 79.1395 10.59 79.6715 9.974C80.2035 9.358 80.8615 8.938 81.6455 8.714C81.4215 8.406 81.0715 8.168 80.5955 8C80.1475 7.804 79.6575 7.706 79.1255 7.706C77.4455 7.706 76.1295 8.63 75.1775 10.478C74.2535 12.298 73.7915 14.692 73.7915 17.66C73.7915 20.656 74.3235 22.812 75.3875 24.128C76.4515 25.444 77.7815 26.102 79.3775 26.102C80.3295 26.102 81.2815 25.85 82.2335 25.346C83.2135 24.842 84.0955 23.96 84.8795 22.7L85.5935 22.952C85.0335 24.772 84.0535 26.34 82.6535 27.656C81.2535 28.944 79.4475 29.588 77.2355 29.588C74.3515 29.588 71.9995 28.636 70.1795 26.732C68.3595 24.828 67.4495 22 67.4495 18.248C67.4495 15.784 67.8975 13.684 68.7935 11.948C69.6895 10.212 70.9215 8.91 72.4895 8.042C74.0575 7.146 75.8495 6.698 77.8655 6.698ZM96.3074 7.286H101.263V8.126H96.3074V25.094C96.3074 25.934 96.4474 26.536 96.7274 26.9C97.0354 27.236 97.5114 27.404 98.1554 27.404C99.3594 27.404 100.311 26.564 101.011 24.884L101.725 25.262C100.661 28.146 98.7434 29.588 95.9714 29.588C94.1234 29.588 92.7234 29.112 91.7714 28.16C91.1834 27.572 90.7774 26.844 90.5534 25.976C90.3574 25.08 90.2594 23.862 90.2594 22.322V8.126H86.7314V7.286H90.2594V1.742C92.5834 1.742 94.5994 1.294 96.3074 0.397998V7.286ZM123.463 24.422C123.463 25.71 123.659 26.648 124.051 27.236C124.471 27.824 125.171 28.118 126.151 28.118V29C125.283 28.916 124.415 28.874 123.547 28.874C121.111 28.874 119.067 29.07 117.415 29.462V25.682C116.127 28.286 113.873 29.588 110.653 29.588C108.553 29.588 107.027 29.042 106.075 27.95C105.627 27.418 105.291 26.732 105.067 25.892C104.871 25.024 104.773 23.89 104.773 22.49V11.864C104.773 10.576 104.563 9.638 104.143 9.05C103.751 8.462 103.065 8.168 102.085 8.168V7.286C102.953 7.37 103.821 7.412 104.689 7.412C107.125 7.412 109.169 7.216 110.821 6.824V24.212C110.821 25.388 110.989 26.27 111.325 26.858C111.689 27.446 112.361 27.74 113.341 27.74C114.461 27.74 115.413 27.278 116.197 26.354C117.009 25.402 117.415 24.24 117.415 22.868V11.864C117.415 10.576 117.205 9.638 116.785 9.05C116.393 8.462 115.707 8.168 114.727 8.168V7.286C115.623 7.37 116.491 7.412 117.331 7.412C119.767 7.412 121.811 7.216 123.463 6.824V24.422ZM133.562 29.294C131.77 29.294 130.426 28.832 129.53 27.908C128.662 26.984 128.228 25.766 128.228 24.254C128.228 22.994 128.55 21.958 129.194 21.146C129.866 20.306 130.664 19.662 131.588 19.214C132.54 18.766 133.744 18.29 135.2 17.786C136.74 17.254 137.86 16.778 138.56 16.358C139.288 15.91 139.652 15.308 139.652 14.552V11.276C139.652 10.1 139.372 9.19 138.812 8.546C138.28 7.874 137.44 7.538 136.292 7.538C134.948 7.538 133.926 7.874 133.226 8.546C134.01 8.826 134.612 9.246 135.032 9.806C135.48 10.366 135.704 11.024 135.704 11.78C135.704 12.732 135.382 13.488 134.738 14.048C134.094 14.608 133.31 14.888 132.386 14.888C131.406 14.888 130.65 14.58 130.118 13.964C129.586 13.348 129.32 12.578 129.32 11.654C129.32 10.87 129.502 10.212 129.866 9.68C130.258 9.12 130.846 8.602 131.63 8.126C132.386 7.678 133.31 7.328 134.402 7.076C135.522 6.824 136.74 6.698 138.056 6.698C139.428 6.698 140.618 6.838 141.626 7.118C142.634 7.398 143.474 7.874 144.146 8.546C144.762 9.162 145.168 9.918 145.364 10.814C145.588 11.71 145.7 12.928 145.7 14.468V25.892C145.7 26.564 145.756 27.04 145.868 27.32C146.008 27.6 146.26 27.74 146.624 27.74C147.044 27.74 147.548 27.502 148.136 27.026L148.556 27.74C147.296 28.776 145.756 29.294 143.936 29.294C142.396 29.294 141.318 28.986 140.702 28.37C140.086 27.754 139.764 26.928 139.736 25.892C138.336 28.16 136.278 29.294 133.562 29.294ZM136.796 26.606C137.888 26.606 138.84 26.032 139.652 24.884V16.274C139.316 16.834 138.602 17.45 137.51 18.122C136.418 18.822 135.592 19.522 135.032 20.222C134.472 20.922 134.192 21.93 134.192 23.246C134.192 24.394 134.43 25.248 134.906 25.808C135.382 26.34 136.012 26.606 136.796 26.606ZM164.204 6.698C165.464 6.698 166.416 7.076 167.06 7.832C167.704 8.588 168.026 9.498 168.026 10.562C168.026 11.598 167.718 12.452 167.102 13.124C166.514 13.768 165.73 14.09 164.75 14.09C163.798 14.09 163.042 13.852 162.482 13.376C161.922 12.872 161.642 12.214 161.642 11.402C161.642 10.058 162.258 8.966 163.49 8.126C163.378 8.098 163.21 8.084 162.986 8.084C162.706 8.084 162.482 8.112 162.314 8.168C161.25 8.336 160.34 8.98 159.584 10.1C158.856 11.22 158.492 12.368 158.492 13.544V24.674C158.492 25.962 158.8 26.858 159.416 27.362C160.06 27.866 161.068 28.118 162.44 28.118V29C162.048 29 161.726 28.986 161.474 28.958C158.618 28.874 156.714 28.832 155.762 28.832C155.006 28.832 153.284 28.874 150.596 28.958C150.372 28.986 150.092 29 149.756 29V28.118C150.764 28.118 151.464 27.908 151.856 27.488C152.248 27.04 152.444 26.242 152.444 25.094V11.864C152.444 10.576 152.248 9.638 151.856 9.05C151.464 8.462 150.764 8.168 149.756 8.168V7.286C150.652 7.37 151.52 7.412 152.36 7.412C154.852 7.412 156.896 7.216 158.492 6.824V10.73C159.024 9.526 159.794 8.56 160.802 7.832C161.81 7.076 162.944 6.698 164.204 6.698ZM186.666 7.412C188.066 7.412 189.144 7.37 189.9 7.286V8.126C189.312 8.294 188.78 8.658 188.304 9.218C187.856 9.75 187.422 10.59 187.002 11.738L179.484 32.864C178.924 34.32 178.308 35.314 177.636 35.846C176.824 36.546 175.606 36.896 173.982 36.896C172.806 36.896 171.742 36.602 170.79 36.014C169.866 35.454 169.404 34.628 169.404 33.536C169.404 32.668 169.712 31.968 170.328 31.436C170.944 30.932 171.756 30.68 172.764 30.68C173.716 30.68 174.472 30.904 175.032 31.352C175.62 31.828 175.914 32.486 175.914 33.326C175.914 33.914 175.732 34.446 175.368 34.922C175.004 35.426 174.486 35.804 173.814 36.056C174.01 36.084 174.332 36.098 174.78 36.098C176.516 36.098 177.79 34.992 178.602 32.78L179.274 30.764L170.37 10.52C169.922 9.568 169.488 8.938 169.068 8.63C168.648 8.322 168.214 8.168 167.766 8.168V7.286C169.614 7.454 171.532 7.538 173.52 7.538C175.172 7.538 177.118 7.454 179.358 7.286V8.168C178.462 8.168 177.79 8.238 177.342 8.378C176.922 8.49 176.712 8.812 176.712 9.344C176.712 9.652 176.81 10.044 177.006 10.52L182.13 22.91L185.028 14.846C185.476 13.53 185.7 12.41 185.7 11.486C185.7 9.442 184.664 8.322 182.592 8.126V7.286C183.908 7.37 185.266 7.412 186.666 7.412Z" fill="#D89D4E"/>
</svg>
